<mxfile host="Electron" modified="2023-11-08T08:29:22.967Z" agent="Mozilla/5.0 (Macintosh; Intel Mac OS X 10_15_7) AppleWebKit/537.36 (KHTML, like Gecko) draw.io/22.0.3 Chrome/114.0.5735.289 Electron/25.8.4 Safari/537.36" etag="pv72HsnDWOPsWV2OQ0tq" version="22.0.3" type="device">
  <diagram name="Page-1" id="YdI12fPbCOMbE4Z04Z38">
    <mxGraphModel dx="1976" dy="2221" grid="1" gridSize="10" guides="1" tooltips="1" connect="1" arrows="1" fold="1" page="1" pageScale="1" pageWidth="827" pageHeight="1169" math="0" shadow="0">
      <root>
        <mxCell id="0" />
        <mxCell id="1" parent="0" />
        <mxCell id="c6NTN3U9E4Sdu7_uxLUt-17" style="rounded=0;orthogonalLoop=1;jettySize=auto;html=1;exitX=0.75;exitY=0.25;exitDx=0;exitDy=0;exitPerimeter=0;edgeStyle=orthogonalEdgeStyle;entryX=0.006;entryY=0.086;entryDx=0;entryDy=0;entryPerimeter=0;" parent="1" source="c6NTN3U9E4Sdu7_uxLUt-1" target="c6NTN3U9E4Sdu7_uxLUt-7" edge="1">
          <mxGeometry relative="1" as="geometry">
            <mxPoint x="735.0699999999999" y="100.00000000000009" as="targetPoint" />
            <mxPoint x="100" y="404.08000000000004" as="sourcePoint" />
            <Array as="points">
              <mxPoint x="110" y="150" />
              <mxPoint x="748" y="150" />
              <mxPoint x="748" y="149" />
            </Array>
          </mxGeometry>
        </mxCell>
        <mxCell id="c6NTN3U9E4Sdu7_uxLUt-19" value="&lt;font color=&quot;#00994d&quot; style=&quot;font-size: 15px;&quot;&gt;&amp;nbsp;Login to qal9000&lt;br&gt;&amp;nbsp;with MyAccessID&lt;/font&gt;" style="edgeLabel;html=1;align=center;verticalAlign=middle;resizable=0;points=[];" parent="c6NTN3U9E4Sdu7_uxLUt-17" vertex="1" connectable="0">
          <mxGeometry x="0.6524" y="1" relative="1" as="geometry">
            <mxPoint as="offset" />
          </mxGeometry>
        </mxCell>
        <mxCell id="ixGHIi7TNLsz5n2HLe45-2" value="&lt;font style=&quot;font-size: 20px;&quot;&gt;&lt;b&gt;2&lt;/b&gt;&lt;/font&gt;" style="edgeLabel;html=1;align=center;verticalAlign=middle;resizable=0;points=[];" parent="c6NTN3U9E4Sdu7_uxLUt-17" vertex="1" connectable="0">
          <mxGeometry x="0.0205" y="4" relative="1" as="geometry">
            <mxPoint as="offset" />
          </mxGeometry>
        </mxCell>
        <mxCell id="c6NTN3U9E4Sdu7_uxLUt-1" value="" style="shape=actor;whiteSpace=wrap;html=1;" parent="1" vertex="1">
          <mxGeometry x="80" y="430" width="40" height="60" as="geometry" />
        </mxCell>
        <mxCell id="c6NTN3U9E4Sdu7_uxLUt-3" value="CLIENT COMPUTER" style="swimlane;whiteSpace=wrap;html=1;" parent="1" vertex="1">
          <mxGeometry x="380" y="590" width="215" height="145" as="geometry" />
        </mxCell>
        <mxCell id="c6NTN3U9E4Sdu7_uxLUt-4" value="&lt;font style=&quot;font-size: 15px;&quot;&gt;e.g. HPCs like LUMI,&lt;br&gt;eX3&amp;nbsp;or local development &lt;br&gt;machines&lt;/font&gt;" style="text;html=1;align=left;verticalAlign=middle;resizable=0;points=[];autosize=1;strokeColor=none;fillColor=none;" parent="c6NTN3U9E4Sdu7_uxLUt-3" vertex="1">
          <mxGeometry x="12.5" y="50" width="190" height="70" as="geometry" />
        </mxCell>
        <mxCell id="c6NTN3U9E4Sdu7_uxLUt-5" value="PUHURI" style="swimlane;whiteSpace=wrap;html=1;" parent="1" vertex="1">
          <mxGeometry x="414" y="-110" width="220" height="90" as="geometry" />
        </mxCell>
        <mxCell id="c6NTN3U9E4Sdu7_uxLUt-6" value="&lt;font style=&quot;font-size: 15px;&quot;&gt;Tracks resource allocations&lt;/font&gt;" style="text;html=1;align=left;verticalAlign=middle;resizable=0;points=[];autosize=1;strokeColor=none;fillColor=none;" parent="c6NTN3U9E4Sdu7_uxLUt-5" vertex="1">
          <mxGeometry x="10" y="45" width="210" height="30" as="geometry" />
        </mxCell>
        <mxCell id="c6NTN3U9E4Sdu7_uxLUt-7" value="MSS" style="swimlane;whiteSpace=wrap;html=1;" parent="1" vertex="1">
          <mxGeometry x="750" y="130" width="325" height="225" as="geometry" />
        </mxCell>
        <mxCell id="c6NTN3U9E4Sdu7_uxLUt-8" value="&lt;ul style=&quot;font-size: 15px;&quot;&gt;&lt;li&gt;&lt;font style=&quot;font-size: 15px;&quot;&gt;Authenticates users in at least 3&lt;/font&gt;&amp;nbsp;ways:&lt;/li&gt;&lt;ul&gt;&lt;li&gt;&lt;font style=&quot;font-size: 15px;&quot;&gt;MyAccessID&lt;/font&gt;&lt;/li&gt;&lt;li&gt;Oauth2 with Chalmers&lt;/li&gt;&lt;li&gt;Oauth2 with WACQT particpants&lt;/li&gt;&lt;/ul&gt;&lt;li&gt;Generates App tokens for QPU access&lt;/li&gt;&lt;li style=&quot;border-color: var(--border-color);&quot;&gt;Gateway to BCC&lt;/li&gt;&lt;li style=&quot;border-color: var(--border-color);&quot;&gt;Tracks resource usage&lt;/li&gt;&lt;ul&gt;&lt;li style=&quot;border-color: var(--border-color);&quot;&gt;a project can have negative QPU&lt;br&gt;seconds if past job runs exceeded&lt;br&gt;allocated QPU seconds&lt;/li&gt;&lt;/ul&gt;&lt;/ul&gt;" style="text;html=1;align=left;verticalAlign=middle;resizable=0;points=[];autosize=1;strokeColor=none;fillColor=none;" parent="c6NTN3U9E4Sdu7_uxLUt-7" vertex="1">
          <mxGeometry x="-5" y="5" width="330" height="220" as="geometry" />
        </mxCell>
        <mxCell id="c6NTN3U9E4Sdu7_uxLUt-13" value="BCC" style="swimlane;whiteSpace=wrap;html=1;startSize=23;" parent="1" vertex="1">
          <mxGeometry x="1290" y="190" width="140" height="135" as="geometry" />
        </mxCell>
        <mxCell id="c6NTN3U9E4Sdu7_uxLUt-14" value="&lt;ul style=&quot;font-size: 15px;&quot;&gt;&lt;li&gt;Compiles jobs&lt;/li&gt;&lt;li&gt;Queues jobs&lt;/li&gt;&lt;/ul&gt;" style="text;html=1;align=left;verticalAlign=middle;resizable=0;points=[];autosize=1;strokeColor=none;fillColor=none;" parent="c6NTN3U9E4Sdu7_uxLUt-13" vertex="1">
          <mxGeometry x="-10" y="37.5" width="160" height="80" as="geometry" />
        </mxCell>
        <mxCell id="c6NTN3U9E4Sdu7_uxLUt-15" value="QPU" style="swimlane;whiteSpace=wrap;html=1;startSize=23;" parent="1" vertex="1">
          <mxGeometry x="1610" y="210" width="140" height="100" as="geometry" />
        </mxCell>
        <mxCell id="c6NTN3U9E4Sdu7_uxLUt-16" value="&lt;div&gt;&lt;span style=&quot;font-size: 15px;&quot;&gt;&lt;br&gt;&lt;/span&gt;&lt;/div&gt;" style="text;html=1;align=left;verticalAlign=middle;resizable=0;points=[];autosize=1;strokeColor=none;fillColor=none;" parent="c6NTN3U9E4Sdu7_uxLUt-15" vertex="1">
          <mxGeometry x="40" y="62.5" width="20" height="30" as="geometry" />
        </mxCell>
        <mxCell id="n2bnOLfeetu0Hnq29D8m-7" value="&lt;font style=&quot;font-size: 15px;&quot;&gt;Runs the&lt;br&gt;quantum &lt;br&gt;experiments&lt;/font&gt;" style="text;html=1;align=center;verticalAlign=middle;resizable=0;points=[];autosize=1;strokeColor=none;fillColor=none;" parent="c6NTN3U9E4Sdu7_uxLUt-15" vertex="1">
          <mxGeometry x="15" y="22.5" width="110" height="70" as="geometry" />
        </mxCell>
        <mxCell id="c6NTN3U9E4Sdu7_uxLUt-18" style="rounded=0;orthogonalLoop=1;jettySize=auto;html=1;entryX=0;entryY=0.5;entryDx=0;entryDy=0;exitX=0.5;exitY=0;exitDx=0;exitDy=0;edgeStyle=orthogonalEdgeStyle;" parent="1" source="c6NTN3U9E4Sdu7_uxLUt-1" target="c6NTN3U9E4Sdu7_uxLUt-5" edge="1">
          <mxGeometry relative="1" as="geometry">
            <mxPoint x="60" y="415" as="sourcePoint" />
            <mxPoint x="364" y="-95" as="targetPoint" />
          </mxGeometry>
        </mxCell>
        <mxCell id="c6NTN3U9E4Sdu7_uxLUt-20" value="&lt;font style=&quot;font-size: 15px;&quot;&gt;Get attached to project&lt;br&gt;that has QPU seconds&lt;br&gt;allocated to it on qal9000&lt;br&gt;&lt;br&gt;(or have an admin create&lt;br&gt;it for you directly on MSS)&lt;br&gt;&lt;/font&gt;" style="edgeLabel;html=1;align=center;verticalAlign=middle;resizable=0;points=[];" parent="c6NTN3U9E4Sdu7_uxLUt-18" vertex="1" connectable="0">
          <mxGeometry x="0.4911" relative="1" as="geometry">
            <mxPoint as="offset" />
          </mxGeometry>
        </mxCell>
        <mxCell id="ixGHIi7TNLsz5n2HLe45-3" value="&lt;font style=&quot;font-size: 20px;&quot;&gt;&lt;b&gt;1&lt;/b&gt;&lt;/font&gt;" style="edgeLabel;html=1;align=center;verticalAlign=middle;resizable=0;points=[];" parent="c6NTN3U9E4Sdu7_uxLUt-18" vertex="1" connectable="0">
          <mxGeometry x="-0.0334" y="-2" relative="1" as="geometry">
            <mxPoint as="offset" />
          </mxGeometry>
        </mxCell>
        <mxCell id="c6NTN3U9E4Sdu7_uxLUt-21" style="rounded=0;orthogonalLoop=1;jettySize=auto;html=1;exitX=0.9;exitY=0.5;exitDx=0;exitDy=0;exitPerimeter=0;edgeStyle=orthogonalEdgeStyle;entryX=0.016;entryY=0.059;entryDx=0;entryDy=0;entryPerimeter=0;" parent="1" source="c6NTN3U9E4Sdu7_uxLUt-1" edge="1">
          <mxGeometry relative="1" as="geometry">
            <mxPoint x="116" y="500" as="sourcePoint" />
            <mxPoint x="749.9999999999999" y="220.0300000000002" as="targetPoint" />
            <Array as="points">
              <mxPoint x="116" y="220" />
            </Array>
          </mxGeometry>
        </mxCell>
        <mxCell id="c6NTN3U9E4Sdu7_uxLUt-22" value="&lt;b&gt;&lt;font style=&quot;font-size: 20px;&quot;&gt;3&lt;/font&gt;&lt;/b&gt;" style="edgeLabel;html=1;align=center;verticalAlign=middle;resizable=0;points=[];" parent="c6NTN3U9E4Sdu7_uxLUt-21" vertex="1" connectable="0">
          <mxGeometry x="0.6524" y="1" relative="1" as="geometry">
            <mxPoint x="-301" y="2" as="offset" />
          </mxGeometry>
        </mxCell>
        <mxCell id="ixGHIi7TNLsz5n2HLe45-4" value="&lt;font style=&quot;font-size: 15px;&quot;&gt;&lt;font color=&quot;#00994d&quot;&gt;Generate time-bound&lt;br&gt;&amp;nbsp;project-based app token&lt;br&gt;for a valid project to which&lt;br&gt;user is attached&lt;/font&gt;&lt;br&gt;&lt;/font&gt;" style="edgeLabel;html=1;align=center;verticalAlign=middle;resizable=0;points=[];" parent="c6NTN3U9E4Sdu7_uxLUt-21" vertex="1" connectable="0">
          <mxGeometry x="0.4158" y="1" relative="1" as="geometry">
            <mxPoint y="11" as="offset" />
          </mxGeometry>
        </mxCell>
        <mxCell id="c6NTN3U9E4Sdu7_uxLUt-23" style="rounded=0;orthogonalLoop=1;jettySize=auto;html=1;entryX=0;entryY=0.5;entryDx=0;entryDy=0;exitX=0.5;exitY=1;exitDx=0;exitDy=0;edgeStyle=orthogonalEdgeStyle;" parent="1" source="c6NTN3U9E4Sdu7_uxLUt-1" edge="1">
          <mxGeometry relative="1" as="geometry">
            <mxPoint x="100" y="498" as="sourcePoint" />
            <mxPoint x="380" y="670.5" as="targetPoint" />
            <Array as="points">
              <mxPoint x="100" y="671" />
            </Array>
          </mxGeometry>
        </mxCell>
        <mxCell id="c6NTN3U9E4Sdu7_uxLUt-24" value="&lt;b&gt;&lt;font style=&quot;font-size: 20px;&quot;&gt;4&lt;/font&gt;&lt;/b&gt;" style="edgeLabel;html=1;align=center;verticalAlign=middle;resizable=0;points=[];" parent="c6NTN3U9E4Sdu7_uxLUt-23" vertex="1" connectable="0">
          <mxGeometry x="0.6524" y="1" relative="1" as="geometry">
            <mxPoint x="-199" y="-69" as="offset" />
          </mxGeometry>
        </mxCell>
        <mxCell id="ixGHIi7TNLsz5n2HLe45-5" value="&lt;font style=&quot;font-size: 15px;&quot;&gt;&lt;font color=&quot;#00994d&quot;&gt;Create python script that uses&lt;br&gt;&amp;nbsp;&#39;tergite-qiskit-connector&quot; library &lt;br&gt;and app token to access&lt;br&gt;qal9000 services&lt;/font&gt;&lt;br&gt;&lt;/font&gt;" style="edgeLabel;html=1;align=center;verticalAlign=middle;resizable=0;points=[];" parent="c6NTN3U9E4Sdu7_uxLUt-23" vertex="1" connectable="0">
          <mxGeometry x="0.0358" y="1" relative="1" as="geometry">
            <mxPoint x="63" y="1" as="offset" />
          </mxGeometry>
        </mxCell>
        <mxCell id="c6NTN3U9E4Sdu7_uxLUt-27" style="rounded=0;orthogonalLoop=1;jettySize=auto;html=1;exitX=1;exitY=0.75;exitDx=0;exitDy=0;edgeStyle=orthogonalEdgeStyle;entryX=0.742;entryY=1.009;entryDx=0;entryDy=0;entryPerimeter=0;" parent="1" source="c6NTN3U9E4Sdu7_uxLUt-3" target="c6NTN3U9E4Sdu7_uxLUt-8" edge="1">
          <mxGeometry relative="1" as="geometry">
            <mxPoint x="770" y="519" as="sourcePoint" />
            <mxPoint x="1000" y="340" as="targetPoint" />
          </mxGeometry>
        </mxCell>
        <mxCell id="c6NTN3U9E4Sdu7_uxLUt-28" value="&lt;b&gt;&lt;font style=&quot;font-size: 20px;&quot;&gt;8&lt;/font&gt;&lt;/b&gt;" style="edgeLabel;html=1;align=center;verticalAlign=middle;resizable=0;points=[];" parent="c6NTN3U9E4Sdu7_uxLUt-27" vertex="1" connectable="0">
          <mxGeometry x="0.6524" y="1" relative="1" as="geometry">
            <mxPoint x="-329" y="215" as="offset" />
          </mxGeometry>
        </mxCell>
        <mxCell id="n2bnOLfeetu0Hnq29D8m-3" value="&lt;font style=&quot;font-size: 15px;&quot;&gt;&lt;font color=&quot;#00994d&quot;&gt;Request &lt;br&gt;job results&lt;/font&gt;&lt;br&gt;&lt;/font&gt;" style="edgeLabel;html=1;align=center;verticalAlign=middle;resizable=0;points=[];" parent="c6NTN3U9E4Sdu7_uxLUt-27" vertex="1" connectable="0">
          <mxGeometry x="0.7069" relative="1" as="geometry">
            <mxPoint y="58" as="offset" />
          </mxGeometry>
        </mxCell>
        <mxCell id="c6NTN3U9E4Sdu7_uxLUt-32" style="rounded=0;orthogonalLoop=1;jettySize=auto;html=1;exitX=1.003;exitY=0.436;exitDx=0;exitDy=0;exitPerimeter=0;edgeStyle=orthogonalEdgeStyle;entryX=0.443;entryY=0.015;entryDx=0;entryDy=0;entryPerimeter=0;" parent="1" source="c6NTN3U9E4Sdu7_uxLUt-8" target="c6NTN3U9E4Sdu7_uxLUt-13" edge="1">
          <mxGeometry relative="1" as="geometry">
            <mxPoint x="1059.88" y="230.01000000000022" as="sourcePoint" />
            <mxPoint x="1350" y="30" as="targetPoint" />
            <Array as="points">
              <mxPoint x="1074" y="231" />
              <mxPoint x="1100" y="230" />
              <mxPoint x="1100" y="20" />
              <mxPoint x="1352" y="20" />
            </Array>
          </mxGeometry>
        </mxCell>
        <mxCell id="c6NTN3U9E4Sdu7_uxLUt-33" value="&lt;b&gt;&lt;font style=&quot;font-size: 20px;&quot;&gt;6&lt;/font&gt;&lt;/b&gt;" style="edgeLabel;html=1;align=center;verticalAlign=middle;resizable=0;points=[];" parent="c6NTN3U9E4Sdu7_uxLUt-32" vertex="1" connectable="0">
          <mxGeometry x="0.6524" y="1" relative="1" as="geometry">
            <mxPoint x="-254" y="10" as="offset" />
          </mxGeometry>
        </mxCell>
        <mxCell id="n2bnOLfeetu0Hnq29D8m-4" value="&lt;font style=&quot;font-size: 15px;&quot;&gt;Send job to&lt;br&gt;be compiled and&amp;nbsp;&lt;br&gt;queued&lt;br&gt;&lt;/font&gt;" style="edgeLabel;html=1;align=center;verticalAlign=middle;resizable=0;points=[];fontColor=#00994D;" parent="c6NTN3U9E4Sdu7_uxLUt-32" vertex="1" connectable="0">
          <mxGeometry x="-0.3719" y="3" relative="1" as="geometry">
            <mxPoint x="133" y="-40" as="offset" />
          </mxGeometry>
        </mxCell>
        <mxCell id="c6NTN3U9E4Sdu7_uxLUt-35" style="rounded=0;orthogonalLoop=1;jettySize=auto;html=1;exitX=0.5;exitY=1;exitDx=0;exitDy=0;edgeStyle=orthogonalEdgeStyle;entryX=0.894;entryY=1;entryDx=0;entryDy=0;entryPerimeter=0;" parent="1" source="c6NTN3U9E4Sdu7_uxLUt-13" target="c6NTN3U9E4Sdu7_uxLUt-8" edge="1">
          <mxGeometry relative="1" as="geometry">
            <mxPoint x="1365.08" y="385.02" as="sourcePoint" />
            <mxPoint x="1040" y="340" as="targetPoint" />
            <Array as="points">
              <mxPoint x="1360" y="490" />
              <mxPoint x="1040" y="490" />
            </Array>
          </mxGeometry>
        </mxCell>
        <mxCell id="c6NTN3U9E4Sdu7_uxLUt-36" value="&lt;b&gt;&lt;font style=&quot;font-size: 20px;&quot;&gt;7&lt;/font&gt;&lt;/b&gt;" style="edgeLabel;html=1;align=center;verticalAlign=middle;resizable=0;points=[];" parent="c6NTN3U9E4Sdu7_uxLUt-35" vertex="1" connectable="0">
          <mxGeometry x="0.6524" y="1" relative="1" as="geometry">
            <mxPoint x="321" y="-50" as="offset" />
          </mxGeometry>
        </mxCell>
        <mxCell id="n2bnOLfeetu0Hnq29D8m-5" value="&lt;font style=&quot;font-size: 15px;&quot;&gt;Send periodic &lt;br&gt;updates of QPU&lt;br&gt;seconds used by job&lt;br&gt;&lt;/font&gt;" style="edgeLabel;html=1;align=center;verticalAlign=middle;resizable=0;points=[];" parent="c6NTN3U9E4Sdu7_uxLUt-35" vertex="1" connectable="0">
          <mxGeometry x="0.0438" y="2" relative="1" as="geometry">
            <mxPoint x="20" y="3" as="offset" />
          </mxGeometry>
        </mxCell>
        <mxCell id="c6NTN3U9E4Sdu7_uxLUt-37" style="edgeStyle=orthogonalEdgeStyle;rounded=0;orthogonalLoop=1;jettySize=auto;html=1;exitX=0.938;exitY=0.594;exitDx=0;exitDy=0;exitPerimeter=0;" parent="1" source="c6NTN3U9E4Sdu7_uxLUt-14" edge="1">
          <mxGeometry relative="1" as="geometry">
            <mxPoint x="1610" y="270" as="targetPoint" />
            <Array as="points">
              <mxPoint x="1430" y="270" />
              <mxPoint x="1525" y="270" />
              <mxPoint x="1525" y="271" />
            </Array>
          </mxGeometry>
        </mxCell>
        <mxCell id="n2bnOLfeetu0Hnq29D8m-8" value="&lt;font style=&quot;font-size: 20px;&quot;&gt;&lt;b&gt;6.5&lt;/b&gt;&lt;/font&gt;" style="edgeLabel;html=1;align=center;verticalAlign=middle;resizable=0;points=[];" parent="c6NTN3U9E4Sdu7_uxLUt-37" vertex="1" connectable="0">
          <mxGeometry x="-0.3491" relative="1" as="geometry">
            <mxPoint x="-26" y="3" as="offset" />
          </mxGeometry>
        </mxCell>
        <mxCell id="n2bnOLfeetu0Hnq29D8m-11" value="&lt;span style=&quot;font-size: 15px;&quot;&gt;&lt;font color=&quot;#00994d&quot;&gt;Send job&lt;br&gt;from queue&lt;br&gt;to QPU&lt;/font&gt;&lt;br&gt;&lt;/span&gt;" style="edgeLabel;html=1;align=center;verticalAlign=middle;resizable=0;points=[];" parent="c6NTN3U9E4Sdu7_uxLUt-37" vertex="1" connectable="0">
          <mxGeometry x="0.0426" y="-1" relative="1" as="geometry">
            <mxPoint x="18" as="offset" />
          </mxGeometry>
        </mxCell>
        <mxCell id="c6NTN3U9E4Sdu7_uxLUt-41" style="rounded=0;orthogonalLoop=1;jettySize=auto;html=1;exitX=0.539;exitY=-0.005;exitDx=0;exitDy=0;edgeStyle=orthogonalEdgeStyle;exitPerimeter=0;" parent="1" edge="1">
          <mxGeometry relative="1" as="geometry">
            <mxPoint x="630" y="-79" as="targetPoint" />
            <mxPoint x="917.0900000000001" y="129.99999999999983" as="sourcePoint" />
            <Array as="points">
              <mxPoint x="917" y="101" />
              <mxPoint x="916" y="101" />
              <mxPoint x="916" y="-79" />
              <mxPoint x="635" y="-79" />
            </Array>
          </mxGeometry>
        </mxCell>
        <mxCell id="c6NTN3U9E4Sdu7_uxLUt-43" value="&lt;font style=&quot;font-size: 20px;&quot;&gt;&lt;b&gt;9&lt;/b&gt;&lt;/font&gt;" style="edgeLabel;html=1;align=center;verticalAlign=middle;resizable=0;points=[];" parent="c6NTN3U9E4Sdu7_uxLUt-41" vertex="1" connectable="0">
          <mxGeometry x="0.0292" y="-3" relative="1" as="geometry">
            <mxPoint x="39" y="143" as="offset" />
          </mxGeometry>
        </mxCell>
        <mxCell id="n2bnOLfeetu0Hnq29D8m-12" value="&lt;font style=&quot;font-size: 15px;&quot;&gt;Periodically synchronize&lt;br&gt;MSS resource tracker&lt;br&gt;with&lt;br&gt;Puhuri allocations&lt;br&gt;&lt;/font&gt;" style="edgeLabel;html=1;align=center;verticalAlign=middle;resizable=0;points=[];" parent="c6NTN3U9E4Sdu7_uxLUt-41" vertex="1" connectable="0">
          <mxGeometry x="-0.0067" y="1" relative="1" as="geometry">
            <mxPoint x="-90" y="11" as="offset" />
          </mxGeometry>
        </mxCell>
        <mxCell id="c6NTN3U9E4Sdu7_uxLUt-48" style="rounded=0;orthogonalLoop=1;jettySize=auto;html=1;exitX=1;exitY=0.5;exitDx=0;exitDy=0;edgeStyle=orthogonalEdgeStyle;entryX=0.206;entryY=1.005;entryDx=0;entryDy=0;entryPerimeter=0;" parent="1" source="c6NTN3U9E4Sdu7_uxLUt-3" target="c6NTN3U9E4Sdu7_uxLUt-8" edge="1">
          <mxGeometry relative="1" as="geometry">
            <mxPoint x="530" y="662.5" as="sourcePoint" />
            <mxPoint x="815" y="340" as="targetPoint" />
          </mxGeometry>
        </mxCell>
        <mxCell id="c6NTN3U9E4Sdu7_uxLUt-49" value="&lt;b&gt;&lt;font style=&quot;font-size: 20px;&quot;&gt;5&lt;/font&gt;&lt;/b&gt;" style="edgeLabel;html=1;align=center;verticalAlign=middle;resizable=0;points=[];" parent="c6NTN3U9E4Sdu7_uxLUt-48" vertex="1" connectable="0">
          <mxGeometry x="0.6524" y="1" relative="1" as="geometry">
            <mxPoint x="-154" y="213" as="offset" />
          </mxGeometry>
        </mxCell>
        <mxCell id="n2bnOLfeetu0Hnq29D8m-1" value="&lt;span style=&quot;font-size: 15px;&quot;&gt;&lt;font color=&quot;#00994d&quot;&gt;If&lt;br&gt;&amp;nbsp;project attached to app token&lt;br&gt;has more than 0 QPU seconds,&lt;br&gt;job from script is accepted.&lt;br&gt;&lt;/font&gt;&lt;br&gt;&lt;/span&gt;" style="edgeLabel;html=1;align=center;verticalAlign=middle;resizable=0;points=[];" parent="c6NTN3U9E4Sdu7_uxLUt-48" vertex="1" connectable="0">
          <mxGeometry x="0.5801" y="1" relative="1" as="geometry">
            <mxPoint y="-26" as="offset" />
          </mxGeometry>
        </mxCell>
        <mxCell id="n2bnOLfeetu0Hnq29D8m-2" value="&lt;font color=&quot;#00994d&quot;&gt;&lt;font style=&quot;font-size: 15px;&quot;&gt;Else&lt;/font&gt;&lt;br style=&quot;border-color: var(--border-color); font-size: 15px;&quot;&gt;&lt;span style=&quot;font-size: 15px;&quot;&gt;&amp;lt;FORBIDDEN ERROR:&amp;nbsp;&lt;/span&gt;&lt;br style=&quot;border-color: var(--border-color); font-size: 15px;&quot;&gt;&lt;span style=&quot;font-size: 15px;&quot;&gt;&quot;You have ... (negative or zero)&lt;/span&gt;&lt;br style=&quot;border-color: var(--border-color); font-size: 15px;&quot;&gt;&lt;span style=&quot;font-size: 15px;&quot;&gt;QPU seconds left on project A&quot;&amp;gt;&lt;/span&gt;&lt;/font&gt;" style="edgeLabel;html=1;align=center;verticalAlign=middle;resizable=0;points=[];" parent="c6NTN3U9E4Sdu7_uxLUt-48" vertex="1" connectable="0">
          <mxGeometry x="0.2449" y="-1" relative="1" as="geometry">
            <mxPoint y="-4" as="offset" />
          </mxGeometry>
        </mxCell>
        <mxCell id="c6NTN3U9E4Sdu7_uxLUt-50" value="&lt;h1&gt;&lt;span style=&quot;font-size: 25px;&quot;&gt;INTERACTION DIAGRAM FOR QAL9000 AUTH&lt;/span&gt;&lt;/h1&gt;" style="text;html=1;strokeColor=none;fillColor=none;align=left;verticalAlign=middle;whiteSpace=wrap;rounded=0;" parent="1" vertex="1">
          <mxGeometry x="60" y="-290" width="600" height="30" as="geometry" />
        </mxCell>
        <mxCell id="SKFivGu764VEOLWTV1KA-14" value="" style="group" parent="1" vertex="1" connectable="0">
          <mxGeometry x="1680" y="-84" width="70" height="64" as="geometry" />
        </mxCell>
        <mxCell id="SKFivGu764VEOLWTV1KA-9" value="" style="endArrow=classic;html=1;rounded=0;" parent="SKFivGu764VEOLWTV1KA-14" edge="1">
          <mxGeometry width="50" height="50" relative="1" as="geometry">
            <mxPoint y="40" as="sourcePoint" />
            <mxPoint x="70" y="40" as="targetPoint" />
          </mxGeometry>
        </mxCell>
        <mxCell id="SKFivGu764VEOLWTV1KA-10" value="&lt;font color=&quot;#00994d&quot;&gt;Done&lt;/font&gt;" style="edgeLabel;html=1;align=center;verticalAlign=middle;resizable=0;points=[];" parent="SKFivGu764VEOLWTV1KA-9" vertex="1" connectable="0">
          <mxGeometry x="-0.15" relative="1" as="geometry">
            <mxPoint as="offset" />
          </mxGeometry>
        </mxCell>
        <mxCell id="SKFivGu764VEOLWTV1KA-12" value="" style="endArrow=classic;html=1;rounded=0;" parent="SKFivGu764VEOLWTV1KA-14" edge="1">
          <mxGeometry width="50" height="50" relative="1" as="geometry">
            <mxPoint y="64" as="sourcePoint" />
            <mxPoint x="70" y="64" as="targetPoint" />
          </mxGeometry>
        </mxCell>
        <mxCell id="SKFivGu764VEOLWTV1KA-13" value="Pending" style="edgeLabel;html=1;align=center;verticalAlign=middle;resizable=0;points=[];" parent="SKFivGu764VEOLWTV1KA-12" vertex="1" connectable="0">
          <mxGeometry x="-0.15" relative="1" as="geometry">
            <mxPoint as="offset" />
          </mxGeometry>
        </mxCell>
        <mxCell id="SKFivGu764VEOLWTV1KA-5" value="&lt;b&gt;&lt;u&gt;Legend&lt;/u&gt;&lt;/b&gt;" style="text;html=1;strokeColor=none;fillColor=none;align=left;verticalAlign=middle;whiteSpace=wrap;rounded=0;" parent="SKFivGu764VEOLWTV1KA-14" vertex="1">
          <mxGeometry width="60" height="30" as="geometry" />
        </mxCell>
      </root>
    </mxGraphModel>
  </diagram>
</mxfile>
